<svg xmlns="http://www.w3.org/2000/svg" width="87" height="32" fill="none"><g clip-path="url(#a)"><path fill="#231F1F" d="M85.318 12.974a6.376 6.376 0 0 0-3.596-6.69 6.246 6.246 0 0 0-7.366 1.512 11.026 11.026 0 0 0-8.468 6.342c-2.61 5.585-.174 12.218 5.336 14.778 5.568 2.618 12.122.174 14.732-5.411a11.098 11.098 0 0 0-.638-10.531ZM79.112 3.956c.464.233 1.044 0 1.276-.524.232-.523.058-1.105-.406-1.338-.464-.233-1.044 0-1.276.524a.96.96 0 0 0 .406 1.338ZM85.202 6.807c.464.232 1.044 0 1.276-.524.232-.524.058-1.106-.406-1.338-.464-.233-1.044 0-1.276.523a.96.96 0 0 0 .406 1.339Z"/><path fill="#fff" d="M85.318 12.974a6.376 6.376 0 0 0-3.596-6.69 6.246 6.246 0 0 0-7.366 1.512 11.026 11.026 0 0 0-8.468 6.342c-2.61 5.585-.174 12.218 5.336 14.778 5.568 2.618 12.122.174 14.732-5.411a11.098 11.098 0 0 0-.638-10.531Z"/><path fill="#231F1F" d="M84.796 14.72c-1.45 3.2-5.22 4.538-8.41 3.083-3.19-1.513-4.524-5.295-3.074-8.436 1.45-3.2 5.22-4.538 8.41-3.084 3.19 1.513 4.582 5.295 3.074 8.436Z"/><path fill="#5D3EBC" d="M85.956 23.505a11.1 11.1 0 0 1-14.732 5.41 11.09 11.09 0 0 1-5.336-14.777A11.1 11.1 0 0 1 80.62 8.726c5.51 2.618 7.946 9.25 5.336 14.778Z"/><mask id="b" width="24" height="23" x="64" y="7" maskUnits="userSpaceOnUse" style="mask-type:luminance"><path fill="#fff" d="M65.888 14.138c-2.61 5.585-.174 12.218 5.336 14.778 5.568 2.618 12.122.175 14.732-5.41 2.61-5.586.174-12.219-5.336-14.779a11.254 11.254 0 0 0-4.698-1.047 11.016 11.016 0 0 0-10.034 6.458Z"/></mask><g mask="url(#b)"><mask id="c" width="55" height="30" x="33" y="1" maskUnits="userSpaceOnUse" style="mask-type:luminance"><path fill="#fff" d="M87.986 1.047h-54.52v29.905h54.52V1.047Z"/></mask><g mask="url(#c)"><path fill="#FFD10D" d="M82.128 12.16c-.638 1.396-2.32 2.036-3.712 1.338-1.392-.64-2.03-2.328-1.334-3.724.638-1.396 2.32-2.036 3.712-1.338 1.392.64 1.972 2.327 1.334 3.723Z"/></g><mask id="d" width="55" height="30" x="33" y="1" maskUnits="userSpaceOnUse" style="mask-type:luminance"><path fill="#fff" d="M87.986 1.047h-54.52v29.905h54.52V1.047Z"/></mask><g mask="url(#d)"><path fill="#FFD10D" d="M73.776 18.676c-.522 1.048-1.74 1.513-2.784 1.048-1.044-.524-1.508-1.746-1.044-2.793.522-1.048 1.74-1.513 2.784-1.048 1.044.466 1.508 1.746 1.044 2.793Z"/></g><mask id="e" width="55" height="30" x="33" y="1" maskUnits="userSpaceOnUse" style="mask-type:luminance"><path fill="#fff" d="M87.986 1.047h-54.52v29.905h54.52V1.047Z"/></mask><g mask="url(#e)"><path fill="#FFD10D" d="M72.326 12.218c-.29.64-1.102.93-1.74.64-.638-.291-.928-1.106-.638-1.746.29-.64 1.102-.93 1.74-.64.638.291.928 1.106.638 1.746Z"/></g><mask id="f" width="55" height="30" x="33" y="1" maskUnits="userSpaceOnUse" style="mask-type:luminance"><path fill="#fff" d="M87.986 1.047h-54.52v29.905h54.52V1.047Z"/></mask><g mask="url(#f)"><path fill="#FFD10D" d="M69.716 23.098c-.29.64-1.102.93-1.74.64-.638-.291-.928-1.106-.638-1.746.29-.64 1.102-.93 1.74-.64.638.291.928 1.048.638 1.746Z"/></g><mask id="g" width="55" height="30" x="33" y="1" maskUnits="userSpaceOnUse" style="mask-type:luminance"><path fill="#fff" d="M87.986 1.047h-54.52v29.905h54.52V1.047Z"/></mask><g mask="url(#g)"><path fill="#FFD10D" d="M77.43 20.421a2.041 2.041 0 0 0 1.044 2.793 2.03 2.03 0 0 0 2.784-1.047 2.041 2.041 0 0 0-1.044-2.793c-1.044-.466-2.32 0-2.784 1.047Z"/></g><mask id="h" width="55" height="30" x="33" y="1" maskUnits="userSpaceOnUse" style="mask-type:luminance"><path fill="#fff" d="M87.986 1.047h-54.52v29.905h54.52V1.047Z"/></mask><g mask="url(#h)"><path fill="#FFD10D" d="M83.288 17.338c-.29.64 0 1.454.638 1.745.638.291 1.45 0 1.74-.64.29-.64 0-1.454-.638-1.745-.638-.29-1.45 0-1.74.64Z"/></g><mask id="i" width="55" height="30" x="33" y="1" maskUnits="userSpaceOnUse" style="mask-type:luminance"><path fill="#fff" d="M87.986 1.047h-54.52v29.905h54.52V1.047Z"/></mask><g mask="url(#i)"><path fill="#FFD10D" d="M76.676 26.356c-.29.64 0 1.454.638 1.745.638.29 1.45 0 1.74-.64.29-.64 0-1.454-.638-1.745-.638-.291-1.45 0-1.74.64Z"/></g></g><mask id="j" width="24" height="23" x="64" y="7" maskUnits="userSpaceOnUse" style="mask-type:luminance"><path fill="#fff" d="M65.888 14.138c-2.61 5.585-.174 12.218 5.336 14.778 5.568 2.618 12.122.175 14.732-5.41 2.61-5.586.174-12.219-5.336-14.779a11.254 11.254 0 0 0-4.698-1.047 11.016 11.016 0 0 0-10.034 6.458Z"/></mask><g mask="url(#j)"><mask id="k" width="55" height="30" x="33" y="1" maskUnits="userSpaceOnUse" style="mask-type:luminance"><path fill="#fff" d="M87.986 1.047h-54.52v29.905h54.52V1.047Z"/></mask><g mask="url(#k)"><path fill="#231F1F" d="M80.678 8.61c-.116-.058-.174-.058-.29-.116l-9.512 20.538c.116.058.174.117.29.117.116.058.174.058.29.116l9.512-20.538c-.116 0-.174-.058-.29-.117Z"/></g></g><path fill="#5D3EBC" d="M5.858 26.24C1.914 26.24 0 24.087 0 20.713v-10.24h.986c2.204 0 2.9.64 2.9 2.502v2.676c.638-.815 1.334-1.571 2.9-1.571 3.132 0 5.394 2.153 5.394 5.935-.058 3.84-2.668 6.225-6.322 6.225Zm.174-9.018c-1.276 0-2.146 1.105-2.146 3.025 0 2.27.87 3.026 2.204 3.026 1.276 0 2.088-1.048 2.088-2.793 0-2.386-.754-3.258-2.146-3.258ZM17.11 26.065c-2.088 0-3.944-1.28-3.944-3.956V10.473h1.392c1.74 0 2.552.814 2.552 2.734v8.32c0 1.047.58 1.338 1.682 1.338h.928v1.397c0 1.396-1.334 1.803-2.61 1.803ZM26.332 14.08c3.132 0 5.916 2.385 5.916 5.935 0 3.781-2.262 6.167-6.206 6.167-3.248 0-5.916-2.444-5.916-5.818-.058-3.724 2.61-6.284 6.206-6.284Zm-.232 3.142c-1.102 0-2.088 1.163-2.088 2.734 0 2.211.87 3.2 2.262 3.2 1.276 0 2.088-1.163 2.088-2.734 0-2.095-.928-3.2-2.262-3.2ZM44.544 23.506v1.163c0 2.793-2.378 5.062-6.032 5.062-3.248 0-4.524-1.455-4.524-2.91v-1.22h.116c.696.64 2.03 1.046 3.886 1.046 1.682 0 2.552-.93 2.552-2.152 0-.175-.058-.466-.058-.699v-.407c-.232.756-1.16 1.455-2.32 1.455-2.9 0-5.22-1.455-5.22-5.062 0-3.142 2.494-5.702 6.38-5.702 3.48 0 5.104 2.036 5.104 5.178v3.026c.058.29.058.698.116 1.222Zm-7.598-4.131c0 1.687.812 2.327 1.972 2.327 1.102 0 1.682-.873 1.682-2.153 0-1.687-.638-2.327-1.798-2.327-1.16.058-1.856.814-1.856 2.153ZM51.446 25.89c-1.16 0-2.088-.814-2.088-2.21v-8.262l-1.334.407c-.29.058-.58.117-.87.117-.812 0-1.508-.408-1.624-1.106l-.232-1.396 3.77-1.571c.638-.291 1.392-.466 2.32-.466.928 0 1.914.698 1.914 1.804v12.625h-1.856v.059ZM60.436 25.89c-1.16 0-2.088-.814-2.088-2.21v-8.262l-1.334.407c-.29.058-.58.117-.87.117-.812 0-1.508-.408-1.624-1.106l-.232-1.396 3.77-1.571c.638-.291 1.392-.466 2.32-.466.928 0 1.914.698 1.914 1.804v12.625h-1.856v.059Z"/></g><defs><clipPath id="a"><path fill="#fff" d="M0 0h87v32H0z"/></clipPath></defs></svg>