<?xml version="1.0" encoding="UTF-8"?>
<svg fill="none" viewBox="0 0 4 12" xmlns="http://www.w3.org/2000/svg">
<path d="m0 9.8962c0-0.5912 0.16038-1.0063 0.48113-1.2453 0.32704-0.23899 0.72013-0.35849 1.1792-0.35849 0.44654 0 0.83019 0.1195 1.1509 0.35849 0.32704 0.239 0.49057 0.65409 0.49057 1.2453 0 0.56607-0.16353 0.97487-0.49057 1.2264-0.32075 0.2516-0.7044 0.3774-1.1509 0.3774-0.45912 0-0.8522-0.1258-1.1792-0.3774-0.32076-0.2515-0.48113-0.6603-0.48113-1.2264zm0-7.7925c0-0.59119 0.16038-1.0063 0.48113-1.2453 0.32704-0.23899 0.72013-0.35849 1.1792-0.35849 0.44654 0 0.83019 0.1195 1.1509 0.35849 0.32704 0.23899 0.49057 0.65409 0.49057 1.2453 0 0.57233-0.16353 0.98428-0.49057 1.2358-0.32075 0.24529-0.7044 0.36793-1.1509 0.36793-0.45912 0-0.8522-0.12264-1.1792-0.36793-0.32076-0.25157-0.48113-0.66352-0.48113-1.2358z" fill="#9E8BD7"/>
</svg>
